<?xml version="1.0" encoding="UTF-8"?>
<svg width="400" height="300" viewBox="0 0 400 300" fill="none" xmlns="http://www.w3.org/2000/svg">
  <path d="M200 250C310.457 250 400 194.036 400 125C400 55.9644 310.457 0 200 0C89.5431 0 0 55.9644 0 125C0 194.036 89.5431 250 200 250Z" fill="#E6F7FF"/>
  <path d="M180 120C180 109.954 188.954 101 199 101C209.046 101 218 109.954 218 120V180C218 190.046 209.046 199 199 199C188.954 199 180 190.046 180 180V120Z" fill="#1890FF"/>
  <rect x="190" y="80" width="18" height="30" rx="9" fill="#1890FF"/>
</svg> 